<?xml version="1.0" encoding="UTF-8" standalone="no"?>
<!-- Created with Inkscape (http://www.inkscape.org/) -->

<svg
   xmlns:dc="http://purl.org/dc/elements/1.1/"
   xmlns:cc="http://creativecommons.org/ns#"
   xmlns:rdf="http://www.w3.org/1999/02/22-rdf-syntax-ns#"
   xmlns:svg="http://www.w3.org/2000/svg"
   xmlns="http://www.w3.org/2000/svg"
   xmlns:sodipodi="http://sodipodi.sourceforge.net/DTD/sodipodi-0.dtd"
   xmlns:inkscape="http://www.inkscape.org/namespaces/inkscape"
   id="svg3449"
   version="1.1"
   inkscape:version="0.91 r13725"
   width="58"
   height="58"
   viewBox="0 0 58 58"
   sodipodi:docname="finance_1.svg">
  <metadata
     id="metadata3455">
    <rdf:RDF>
      <cc:Work
         rdf:about="">
        <dc:format>image/svg+xml</dc:format>
        <dc:type
           rdf:resource="http://purl.org/dc/dcmitype/StillImage" />
        <dc:title></dc:title>
      </cc:Work>
    </rdf:RDF>
  </metadata>
  <defs
     id="defs3453" />
  <sodipodi:namedview
     pagecolor="#ffffff"
     bordercolor="#666666"
     borderopacity="1"
     objecttolerance="10"
     gridtolerance="10"
     guidetolerance="10"
     inkscape:pageopacity="0"
     inkscape:pageshadow="2"
     inkscape:window-width="1440"
     inkscape:window-height="780"
     id="namedview3451"
     showgrid="false"
     inkscape:zoom="4.0689655"
     inkscape:cx="29"
     inkscape:cy="29"
     inkscape:window-x="0"
     inkscape:window-y="1"
     inkscape:window-maximized="1"
     inkscape:current-layer="g3459" />
  <g
     id="g3459"
     transform="translate(2.1813559e-7,-0.24576271)">
    <path
       style="fill:#cfefe9"
       d="M 1.5714286,56.428571 C -0.29259043,54.564552 -0.83556069,19 1,19 c 0.628131,0 1,6.433333 1,17.3 0,12.122222 0.3591522,17.659152 1.2,18.5 1.706357,1.706357 49.893643,1.706357 51.6,0 C 55.640848,53.959152 56,48.422222 56,36.3 56,25.433333 56.371869,19 57,19 c 1.835561,0 1.29259,35.564552 -0.571429,37.428571 -2.358212,2.358213 -52.4989303,2.358213 -54.8571424,0 z M 21,41.991526 c 0,-7.696033 -0.07625,-7.960853 -1.954522,-6.787855 -3.24864,2.02881 -3.590818,-0.02502 -0.535484,-3.214102 C 22.733774,27.580892 23,28.026207 23,39.5 23,45.833333 22.603175,50 22,50 21.416578,50 21,46.663842 21,41.991526 Z m 7,7.068839 c 0,-0.516799 1.641925,-1.079299 3.648723,-1.25 C 38.68983,47.211439 39.038839,41 32.031385,41 L 28,41 l 0,-6.049904 0,-6.049904 5.511501,0.299904 c 6.63537,0.361058 7.335189,2.177286 1.003626,2.604695 C 30.252643,32.092528 30,32.274381 30,35.054791 30,37.543705 30.394362,38 32.545455,38 c 5.283942,0 8.736843,5.72425 5.897841,9.777494 C 36.832958,50.076573 28,51.161628 28,49.060365 Z M 7,22 c 0,-0.636364 8,-1 22,-1 14,0 22,0.363636 22,1 0,0.636364 -8,1 -22,1 C 15,23 7,22.636364 7,22 Z M 0,12 C 0,6.310728 2.599569,4 9,4 13.333333,4 14,3.7333333 14,2 14,0.88888889 14.666667,0 15.5,0 16.66895,0 17,1.3425926 17,6.0833333 17,12.115677 14.944875,14.366717 14.180449,9.1716721 13.904139,7.2938664 13.220783,7 9.130449,7 3.891841,7 2,8.2469976 2,11.7 l 0,2.3 27,0 27,0 0,-2.3 C 56,8.3143625 54.126334,7 49.3,7 46.144444,7 45,6.6007752 45,5.5 45,3.4401473 52.814384,3.4812614 55.777494,5.556704 57.507141,6.7681958 58,8.0987459 58,11.556704 L 58,16 29,16 0,16 0,12 Z M 41.666667,11.333333 C 41.3,10.966667 41,9.8416667 41,8.8333333 41,7.1618357 39.984848,7 29.5,7 19.944444,7 18,6.7463768 18,5.5 18,4.2536232 19.944444,4 29.5,4 40.333333,4 41,3.884058 41,2 41,0.88888889 41.666667,0 42.5,0 43.666667,0 44,1.3333333 44,6 c 0,5.54466 -0.645828,7.020839 -2.333333,5.333333 z"
       id="path3473"
       inkscape:connector-curvature="0" />
    <path
       style="fill:#afe5db"
       d="M 1.6549876,56.171259 C -0.28202185,54.030888 -0.89929434,19 1,19 c 0.628131,0 1,6.433333 1,17.3 0,12.122222 0.3591522,17.659152 1.2,18.5 1.706357,1.706357 49.893643,1.706357 51.6,0 C 55.640848,53.959152 56,48.422222 56,36.3 56,25.433333 56.371869,19 57,19 59.051112,19 58.264408,54.450739 56.171259,56.345012 53.250878,58.987921 4.0621539,58.831148 1.6549876,56.171259 Z M 21,41.345012 C 21,32.74455 20.98736,32.701462 18.993869,34.505548 15.775953,37.417722 15.36361,35.273686 18.509994,31.989569 22.733774,27.580892 23,28.026207 23,39.5 23,45.833333 22.603175,50 22,50 21.41036,50 21,46.448337 21,41.345012 Z M 28,49 c 0,-0.55 1.4625,-1.006891 3.25,-1.015313 C 38.504694,47.950506 39.589972,41.886246 32.5,41 l -4,-0.5 0,-5.5 0,-5.5 5.25,-0.30226 C 36.948657,29.013583 39,29.306632 39,29.94774 39,30.53026 36.964203,31 34.439635,31 l -4.560366,0 0.310366,3.75 c 0.284667,3.439504 0.597977,3.791399 3.783982,4.25 5.638552,0.811626 7.262507,7.139262 2.626679,10.234687 C 34.948041,50.337928 28,50.148327 28,49 Z M 7,22 c 0,-0.636364 8,-1 22,-1 14,0 22,0.363636 22,1 0,0.636364 -8,1 -22,1 C 15,23 7,22.636364 7,22 Z M 0,12.19113 C 0,6.472408 1.7703524,4.7665173 8.2640257,4.2280113 12.882405,3.8450194 13.921791,3.4070719 14.38113,1.6505581 15.364212,-2.1087539 17.145355,1.3555353 16.810489,6.375616 16.486542,11.232011 14.733969,13.147407 14.180449,9.25 13.772171,6.375261 3.6773691,5.7924212 2.6069888,8.5817875 0.46208204,14.171325 -0.37447327,14 29.063358,14 l 27.063359,0 -0.313359,-3.25 C 55.515744,7.6632853 55.260119,7.4748792 50.72546,7 44.629269,6.3615939 44.579962,4.4771468 50.661908,4.5711505 56.152188,4.6560093 58,6.574804 58,12.19113 L 58,16 29,16 0,16 0,12.19113 Z m 41.565854,-1.084576 c -0.314788,-0.509338 -0.303359,-1.62703 0.0254,-2.4837591 0.516892,-1.347 -1.004317,-1.5959066 -11.246756,-1.8402421 C 14.932815,6.4149041 14.716107,4.6645171 30,4 39.019608,3.6078431 41.5,3.1944444 41.5,2.0833333 41.5,1.3041667 42.0625,0.47916667 42.75,0.25 43.649435,-0.0498115 44,1.382641 44,5.3576497 44,10.534546 42.866644,13.211277 41.565854,11.106554 Z"
       id="path3471"
       inkscape:connector-curvature="0" />
    <path
       style="fill:#8edbcd"
       d="M 1.556704,55.777494 C -0.28853335,53.143048 -0.8053595,19 1,19 1.628131,19 2,25.433333 2,36.3 2,48.422222 2.3591522,53.959152 3.2,54.8 5.2396304,56.83963 54.602387,56.478546 55.393011,54.418213 55.726855,53.548229 56,45.223229 56,35.918213 56,25.306071 56.372739,19 57,19 59.051112,19 58.264408,54.450739 56.171259,56.345012 52.896378,59.308739 3.6718093,58.79723 1.556704,55.777494 Z M 21,41.345012 C 21,32.753367 20.985363,32.703271 19,34.5 16.190594,37.042477 16.49005,34.827702 19.314451,32.174314 22.826763,28.874668 23,29.24251 23,40 c 0,6 -0.4,10 -1,10 -0.58964,0 -1,-3.551663 -1,-8.654988 z m 7,7.712486 c 0,-0.518376 1.9125,-1.080876 4.25,-1.25 C 36.237223,47.519013 36.5,47.31451 36.5,44.5 c 0,-2.75 -0.333333,-3.041667 -4,-3.5 l -4,-0.5 0,-5.5 0,-5.5 5.25,-0.30226 C 36.948657,29.013583 39,29.306632 39,29.94774 39,30.528196 36.982326,31 34.5,31 l -4.5,0 0,4 c 0,3.756098 0.178571,4 2.928571,4 5.473062,0 8.1219,5.834374 4.242688,9.345012 C 35.236332,50.096098 28,50.658265 28,49.057498 Z M 7,22 c 0,-0.636364 8,-1 22,-1 14,0 22,0.363636 22,1 0,0.636364 -8,1 -22,1 C 15,23 7,22.636364 7,22 Z M 0,12.154988 C 0,6.9886551 2.1996989,5.1959502 9.011869,4.8105181 13.72929,4.5436067 14.500185,4.2191359 14.501319,2.5 c 7.26e-4,-1.1 0.338226,-1.8875 0.75,-1.75 C 15.663094,0.8875 16,1.225 16,1.5 16,9.3939238 15.695777,12.181406 15.126889,9.5 13.890043,3.6702353 2,5.0607704 2,11.035184 L 2,14 l 27,0 27,0 0,-2.940983 C 56,7.5442697 54.928082,6.7557269 49,5.9095543 L 44.5,5.2672257 49.678571,5.1336129 C 56.034271,4.9696288 58,6.6085136 58,12.071429 L 58,16 29,16 0,16 0,12.154988 Z M 41.825244,9.3414225 41.5,6.5 29.5,5.968095 17.5,5.4361899 29.456563,4.968095 C 41.187992,4.5088139 41.426189,4.4529265 42.106883,2 42.951884,-1.0450197 43.114178,-0.44619459 43.2,6.0333333 43.27348,11.580864 42.33898,13.829555 41.825244,9.3414225 Z"
       id="path3469"
       inkscape:connector-curvature="0" />
    <path
       style="fill:#79d5c4"
       d="M 2,56 C -0.22357867,53.776421 -1.1846849,19 0.97744132,19 1.5683676,19 2.062662,26.216698 2.2274413,37.25 L 2.5,55.5 l 26.5,0 26.5,0 0.272559,-18.25 C 55.937338,26.216698 56.431632,19 57.022559,19 59.184685,19 58.223579,53.776421 56,56 52.906537,59.093463 5.0934625,59.093463 2,56 Z M 21,41.345012 C 21,32.753367 20.985363,32.703271 19,34.5 16.190594,37.042477 16.49005,34.827702 19.314451,32.174314 22.826763,28.874668 23,29.24251 23,40 c 0,6 -0.4,10 -1,10 -0.58964,0 -1,-3.551663 -1,-8.654988 z M 28,49 c 0,-0.55 1.784167,-1 3.964816,-1 2.926041,0 4.242038,-0.517992 5.022919,-1.977082 C 38.422407,43.342208 35.099723,40 31,40 28.066667,40 28,39.888889 28,35 l 0,-5 5.75,0.180248 c 5.686458,0.178257 5.697509,0.184387 1,0.554791 L 30,31.109582 30,35.054791 C 30,38.750307 30.18535,39 32.928571,39 c 5.686256,0 8.272365,6.344996 3.848923,9.443296 C 34.313483,50.169156 28,50.569583 28,49 Z M 7.5,22 c 0.8355564,-1.351959 42.164444,-1.351959 43,0 0.404907,0.655154 -7.009288,1 -21.5,1 C 14.509288,23 7.0950927,22.655154 7.5,22 Z M 0,12.722506 C 0,7.1578924 2.2217033,5.1417743 8.7312068,4.799241 13.830149,4.5309322 14.489447,4.2415775 15.109313,2 15.565379,0.35075684 15.80064,1.5418164 15.80064,5.5 c 0,3.9525097 -0.235518,5.146879 -0.690167,3.5 C 13.633607,3.6503321 2,5.4562569 2,11.035184 L 2,14 l 27,0 27,0 0,-2.877555 C 56,7.3959105 54.47408,6.2266305 48.980381,5.7434621 L 44.5,5.3494144 49.595012,5.1747072 C 55.744182,4.9638531 58,6.8839268 58,12.328741 L 58,16 29,16 0,16 0,12.722506 Z M 42,8.5307789 42,6.0615577 29.75,5.7470006 17.5,5.4324435 29.683578,5.2162218 41.867155,5 42.283746,2.25 C 42.51287,0.7375 42.76776,2.0875 42.850168,5.25 42.932576,8.4125 42.775,11 42.5,11 42.225,11 42,9.8888505 42,8.5307789 Z"
       id="path3467"
       inkscape:connector-curvature="0" />
    <path
       style="fill:#66cfbb"
       d="M 2,56 C -0.22357867,53.776421 -1.1846849,19 0.97744132,19 1.5683676,19 2.062662,26.216698 2.2274413,37.25 L 2.5,55.5 l 26.5,0 26.5,0 0.272559,-18.25 C 55.937338,26.216698 56.431632,19 57.022559,19 59.184685,19 58.223579,53.776421 56,56 52.906537,59.093463 5.0934625,59.093463 2,56 Z M 21.75,49.420781 C 21.3375,49.006018 21,45.071922 21,40.678346 21,32.753367 20.984141,32.704377 19,34.5 c -2.922521,2.644845 -2.451073,0.272389 0.496057,-2.496296 3.410237,-3.203751 3.620969,-2.662482 3.29171,8.454844 C 22.629495,45.802539 22.1625,49.835544 21.75,49.420781 Z M 29,49 c 0,-0.55 1.559167,-1 3.464816,-1 2.48748,0 3.779298,-0.587614 4.579704,-2.083187 C 38.624636,42.96434 35.769167,40 31.345012,40 L 28,40 l 0,-5 0,-5 5.75,0.180248 c 5.686458,0.178257 5.697509,0.184387 1,0.554791 L 30,31.109582 30,35.054791 C 30,38.723929 30.199083,39 32.845012,39 c 5.538544,0 8.220344,6.439961 3.932482,9.443296 C 34.303331,50.176267 29,50.555874 29,49 Z M 7.5,22 c 0.8355564,-1.351959 42.164444,-1.351959 43,0 0.404907,0.655154 -7.009288,1 -21.5,1 C 14.509288,23 7.0950927,22.655154 7.5,22 Z M 0.66666667,15.333333 C -0.53892825,14.127738 -0.02972946,9.4874572 1.556704,7.2225062 2.8650777,5.3545411 4.050905,5 8.9902816,5 14.633758,5 14.8837,4.8907852 15.283746,2.25 c 0.229124,-1.5125 0.41659,-0.05 0.41659,3.25 0,3.3 -0.187466,4.7625 -0.41659,3.25 C 14.890389,6.1533685 14.575277,6 9.6335777,6 3.7127035,6 2,7.1666952 2,11.2 l 0,2.8 27,0 27,0 0,-2.877555 C 56,7.488895 54.505143,6.2540616 49.48732,5.7426165 L 45.5,5.3362062 50.095012,5.1681031 C 55.70857,4.9627377 58,7.0384016 58,12.328741 L 58,16 29.666667,16 C 14.083333,16 1.0333333,15.7 0.66666667,15.333333 Z M 42,8.5307789 42,6.0615577 29.75,5.7470006 17.5,5.4324435 29.683578,5.2162218 41.867155,5 42.283746,2.25 C 42.51287,0.7375 42.76776,2.0875 42.850168,5.25 42.932576,8.4125 42.775,11 42.5,11 42.225,11 42,9.8888505 42,8.5307789 Z"
       id="path3465"
       inkscape:connector-curvature="0" />
    <path
       style="fill:#4cc7b0"
       d="M 2.4411296,56.582599 C 0.16277825,54.918962 -1.1910634,21.791063 0.9325154,19.667485 1.6891615,18.910838 2,23.889372 2,36.764816 c 0,16.935566 0.1308953,18.23487 1.9342585,19.2 2.5978334,1.390318 47.5336495,1.390318 50.1314825,0 C 55.864352,55.002229 56,53.708981 56,37.523833 56,26.998656 56.395306,19.873721 57,19.5 59.216919,18.129869 58.240772,53.759228 56,56 53.385024,58.614976 5.9313879,59.131164 2.4411296,56.582599 Z M 29,49 c 0,-0.55 1.485,-1 3.3,-1 C 35.695147,48 38,46.53275 38,44.371429 38,42.080863 34.871906,40 31.428571,40 L 28,40 l 0,-5 0,-5 5.75,0.180248 c 5.686458,0.178257 5.697509,0.184387 1,0.554791 L 30,31.109582 30,35.054791 C 30,38.723929 30.199083,39 32.845012,39 c 5.538544,0 8.220344,6.439961 3.932482,9.443296 C 34.303331,50.176267 29,50.555874 29,49 Z m -7.826147,-8.002349 c 0.33391,-8.192821 0.0147,-9.134698 -2.193909,-6.473485 -0.69572,0.838291 -1.502594,1.286517 -1.793054,0.996057 C 16.559835,34.893169 20.980728,30 22.174314,30 22.628441,30 23,34.275 23,39.5 c 0,6.114808 -0.38347,9.5 -1.076147,9.5 -0.705715,0 -0.963881,-2.754577 -0.75,-8.002349 z M 18.25,22.253787 c 5.9125,-0.176798 15.5875,-0.176798 21.5,0 5.9125,0.176797 1.075,0.32145 -10.75,0.32145 -11.825,0 -16.6625,-0.144653 -10.75,-0.32145 z M 0.6819309,15.348598 C -0.5369407,14.129726 -0.03855768,9.5000613 1.556704,7.2225062 2.8650777,5.3545411 4.050905,5 8.9902816,5 14.633758,5 14.8837,4.8907852 15.283746,2.25 c 0.229124,-1.5125 0.41659,-0.05 0.41659,3.25 0,3.3 -0.187466,4.7625 -0.41659,3.25 C 14.890389,6.1533685 14.575277,6 9.6335777,6 3.5453037,6 2,7.1538798 2,11.7 l 0,3.3 27,0 27,0 0,-3.377555 C 56,7.4873794 54.65033,6.2688599 49.48732,5.7426165 45.518936,5.3381363 45.522449,5.3354079 50.226947,5.1681031 55.675853,4.9743252 58.397812,7.668171 57.822659,12.685365 L 57.5,15.5 29.431931,15.765264 C 13.994493,15.91116 1.0569929,15.72366 0.6819309,15.348598 Z M 42,8.5317353 C 42,6.0653947 41.99084,6.0632237 30.25,5.746768 L 18.5,5.4300654 30.183578,5.2150327 41.867155,5 42.283746,2.25 C 42.51287,0.7375 42.76776,2.0875 42.850168,5.25 42.932576,8.4125 42.775,11 42.5,11 42.225,11 42,9.8892809 42,8.5317353 Z"
       id="path3463"
       inkscape:connector-curvature="0" />
    <path
       style="fill:#3bc2a9"
       d="M 2.5034071,55.495096 C 0.03393739,52.927751 0,52.659281 0,35.691251 0,24.91686 0.37362637,18.490032 1,18.490032 c 0.6284947,0 1,6.745428 1,18.157018 0,16.887292 0.1352633,18.232278 1.9342585,19.23323 1.1763695,0.654527 11.1678835,1.076213 25.5000005,1.076213 30.188586,0 27.764657,1.892402 27.361976,-21.361952 C 56.633306,26.185536 56.8375,18.487884 57.25,18.488646 c 1.494836,0.0028 0.86632,34.785994 -0.668023,36.969599 -1.327751,1.889593 -3.014541,2.037845 -26.496593,2.328772 L 5.0068143,58.097723 2.5034071,55.495096 Z M 21.782594,42.662941 c 0.493056,-10.43244 0.912892,-11.455117 1.067574,-2.600502 0.08241,4.71734 -0.187668,8.577619 -0.600168,8.578398 -0.4125,7.8e-4 -0.622833,-2.689273 -0.467406,-5.977896 z m 10.213391,5.241436 C 39.897258,46.832012 39.83823,39.282713 31.928571,39.282713 29.080952,39.282713 29,39.139024 29,34.084543 l 0,-5.198171 5.25,0.187392 5.25,0.187392 -4.75,0.389388 -4.75,0.389388 0,4.101573 c 0,3.814561 0.199083,4.101574 2.845012,4.101574 7.979723,0 8.113001,9.775427 0.136424,10.006149 -3.530108,0.102113 -3.739301,0.0289 -0.985451,-0.344851 z M 19,31.485458 c 1.291745,-1.429497 2.798628,-2.599086 3.348628,-2.599086 0.55,0 -0.05688,1.169589 -1.348628,2.599086 -1.291745,1.429497 -2.798628,2.599085 -3.348628,2.599085 -0.55,0 0.05688,-1.169588 1.348628,-2.599085 z M 18.25,20.833145 c 5.9125,-0.183805 15.5875,-0.183805 21.5,0 5.9125,0.183805 1.075,0.334191 -10.75,0.334191 -11.825,0 -16.6625,-0.150386 -10.75,-0.334191 z M 0.4694515,13.240473 C -0.6851222,11.298292 1.0019706,5.0468485 2.9772917,3.9477892 4.0174656,3.3690413 7.1168028,2.8955203 9.8647076,2.8955203 c 4.3861624,0 5.0491044,-0.2856103 5.4295594,-2.33917667 0.238353,-1.28654719 0.427226,0.23391766 0.419719,3.37881077 -0.0075,3.1448931 -0.201116,4.4314403 -0.43024,2.8589937 C 14.890389,4.0946015 14.575277,3.9351544 9.6335777,3.9351544 3.5403626,3.9351544 2,5.1343031 2,9.8777777 L 2,13.325279 29.25,13.048662 56.5,12.772044 56.344728,9.3184431 C 56.147113,4.923055 55.873993,4.6799949 50.20797,3.8570951 L 45.5,3.1733373 50.226947,3.0344288 c 5.448189,-0.1601033 8.168975,2.6521485 7.595712,7.8510592 L 57.5,13.811678 29.31857,14.087656 C 9.942694,14.277402 0.92851419,14.012693 0.4694515,13.240473 Z M 42,6.5672327 C 42,4.003141 41.99084,4.0008839 30.25,3.6718858 L 18.5,3.342631 30.180449,3.1190756 C 41.41935,2.9039712 41.87728,2.807094 42.294267,0.55634363 42.53262,-0.73020356 42.788918,0.67330246 42.863818,3.6752459 42.938718,6.6771893 42.775,9.1333248 42.5,9.1333248 c -0.275,0 -0.5,-1.1547414 -0.5,-2.5660921 z"
       id="path3461"
       inkscape:connector-curvature="0" />
  </g>
</svg>
