<?xml version="1.0" encoding="UTF-8" standalone="no"?>
<!-- Created with Inkscape (http://www.inkscape.org/) -->

<svg
   xmlns:dc="http://purl.org/dc/elements/1.1/"
   xmlns:cc="http://creativecommons.org/ns#"
   xmlns:rdf="http://www.w3.org/1999/02/22-rdf-syntax-ns#"
   xmlns:svg="http://www.w3.org/2000/svg"
   xmlns="http://www.w3.org/2000/svg"
   xmlns:sodipodi="http://sodipodi.sourceforge.net/DTD/sodipodi-0.dtd"
   xmlns:inkscape="http://www.inkscape.org/namespaces/inkscape"
   id="svg3732"
   version="1.1"
   inkscape:version="0.91 r13725"
   width="140"
   height="70"
   viewBox="0 0 140 70"
   sodipodi:docname="hello.svg">
  <metadata
     id="metadata3738">
    <rdf:RDF>
      <cc:Work
         rdf:about="">
        <dc:format>image/svg+xml</dc:format>
        <dc:type
           rdf:resource="http://purl.org/dc/dcmitype/StillImage" />
        <dc:title></dc:title>
      </cc:Work>
    </rdf:RDF>
  </metadata>
  <defs
     id="defs3736" />
  <sodipodi:namedview
     pagecolor="#ffffff"
     bordercolor="#666666"
     borderopacity="1"
     objecttolerance="10"
     gridtolerance="10"
     guidetolerance="10"
     inkscape:pageopacity="0"
     inkscape:pageshadow="2"
     inkscape:window-width="1440"
     inkscape:window-height="781"
     id="namedview3734"
     showgrid="false"
     inkscape:zoom="1"
     inkscape:cx="67.687702"
     inkscape:cy="9.1289902"
     inkscape:window-x="0"
     inkscape:window-y="1"
     inkscape:window-maximized="1"
     inkscape:current-layer="svg3732"
     inkscape:showpageshadow="false"
     showborder="false" />
  <g
     id="g3742"
     transform="translate(0.66667,1.3333333)">
    <path
       style="fill:#fefefe"
       d="M 0,52.928571 C 0,37.416017 0.14335762,36.0005 1.5699271,37.42707 5.7858058,41.642949 13.417424,39.443389 12.81038,34.187384 12.552675,31.956075 12.005013,31.5 9.5833333,31.5 7.9791667,31.5 6.4791667,32.0625 6.25,32.75 6.0021368,33.49359 6.7111111,34 8,34 10.531383,34 10.21825,36.328594 7.6190944,36.832576 5.2115336,37.299407 3,35.183274 3,32.412739 3,29.546269 5.5982382,28.00938 9.2606435,28.709493 10.849718,29.013264 12,28.789075 12,28.175594 12,25.355055 4.8980217,24.877326 1.9969921,27.502722 0.009634,29.301256 0,29.239276 0,14.654988 L 0,0 15.75,0.07046195 C 30.294236,0.13552959 31.213878,0.24602269 27.762601,1.5137517 22.192645,3.5597172 15.334831,8.6133593 12.532885,12.736793 c -1.36395,2.007234 -2.293939,3.835487 -2.066641,4.062785 0.227298,0.227298 2.804232,-2.035704 5.72652,-5.028894 C 23.310351,4.4804081 30.609479,1.6200452 40.5,2.2452293 c 8.800069,0.5562561 15.694699,3.8969408 21.385463,10.3619897 4.6894,5.32744 6.797383,5.287888 2.725115,-0.05113 C 61.042765,7.8784442 56.141179,4.2513164 50.307535,1.9719698 L 45.5,0.09354896 l 25,0 25,0 -4.630585,1.81125164 c -5.668299,2.2171536 -10.862147,6.0858211 -14.40307,10.7282104 -4.15691,5.449991 -2.045236,5.204413 3.25799,-0.378888 C 87.115542,4.47257 91.687952,2.5157859 102.5,2.5071711 c 8.1142,-0.00647 9.52709,0.2847785 14.35541,2.9591274 2.94547,1.6314642 7.11342,4.9635125 9.26211,7.4045525 4.51489,5.129179 6.45821,4.883823 2.49306,-0.314763 -3.56781,-4.6776438 -8.4694,-8.3047716 -14.30304,-10.5841182 L 109.5,0.09354896 124.75,0.04677448 140,0 l 0,13 c 0,10.888889 -0.24359,13 -1.5,13 -1.06508,0 -1.5,1.080872 -1.5,3.727844 l 0,3.727844 -3.0728,-3.727844 c -4.7304,-5.738785 -6.07703,-5.046403 -5.72289,2.942459 0.18721,4.223179 0.75428,6.821831 1.54569,7.083333 0.88247,0.291589 1.25,-0.982842 1.25,-4.334412 l 0,-4.747443 3.63377,4.664109 C 136.63235,37.901151 138.65735,40 139.13377,40 139.6102,40 140,46.75 140,55 l 0,15 -70,0 -70,0 0,-17.071429 z m 52.575928,9.578082 C 59.705247,59.018603 69.901569,48 66,48 c -0.55,0 -1,0.395738 -1,0.879418 0,0.48368 -1.842577,2.778068 -4.094616,5.09864 C 48.20727,67.062598 27.918919,66.601602 15.644627,52.949636 11.293438,48.110066 10,47.163781 10,48.820001 c 0,1.584647 7.332857,9.365033 11.020153,11.692721 9.508017,6.002148 21.778531,6.777491 31.555775,1.993931 z m 63.778522,0.01888 C 121.44222,60.11863 131,51.319741 131,49.042841 c 0,-1.885558 -1.08686,-1.108976 -6.05354,4.325363 -6.47286,7.082343 -12.94242,9.93144 -22.59566,9.950795 -9.174329,0.0184 -16.326281,-3.273388 -22.831115,-10.508328 -2.516299,-2.79873 -4.824082,-4.839607 -5.128407,-4.535282 -1.015289,1.015289 1.501848,4.443183 6.683915,9.102307 9.708335,8.728628 23.466477,10.736173 35.279257,5.147835 z M 68,37 c 0,-2.761905 0.277778,-3 3.5,-3 C 73.944444,34 75,33.547619 75,32.5 75,31.452381 73.944444,31 71.5,31 66.851562,31 66.993072,29.205822 71.6727,28.810365 77.895608,28.284492 77.010083,26 70.583333,26 L 65,26 l 0,6.333333 c 0,3.483334 0.3,6.633334 0.666667,7 C 67.10024,40.766907 68,39.867146 68,37 Z"
       id="path3758"
       inkscape:connector-curvature="0" />
    <path
       style="fill:#a1d1d8"
       d="m 36.26375,65.282419 c 1.520062,-0.229855 3.770062,-0.223712 5,0.01365 1.229937,0.237362 -0.01375,0.425424 -2.76375,0.417917 -2.75,-0.0075 -3.756313,-0.201713 -2.23625,-0.431567 z m 64,0 c 1.52006,-0.229855 3.77006,-0.223712 5,0.01365 1.22994,0.237362 -0.0138,0.425424 -2.76375,0.417917 -2.75,-0.0075 -3.756313,-0.201713 -2.23625,-0.431567 z M 33.8125,63.316886 c 0.721875,-0.288871 1.584375,-0.253344 1.916667,0.07895 0.332291,0.332292 -0.258334,0.568641 -1.3125,0.52522 -1.164943,-0.04798 -1.4019,-0.284941 -0.604167,-0.604167 z m 64,0 c 0.721875,-0.288871 1.584375,-0.253344 1.916667,0.07895 0.332293,0.332292 -0.258334,0.568641 -1.3125,0.52522 -1.164943,-0.04798 -1.4019,-0.284941 -0.604167,-0.604167 z m 8,0 c 0.72187,-0.288871 1.58437,-0.253344 1.91667,0.07895 0.33229,0.332292 -0.25834,0.568641 -1.3125,0.52522 -1.16495,-0.04798 -1.4019,-0.284941 -0.60417,-0.604167 z M 79.924314,54.25 77.5,51.5 80.25,53.924314 C 82.820289,56.190201 83.458588,57 82.674314,57 c -0.179127,0 -1.416627,-1.2375 -2.75,-2.75 z M 124,54.5 c 1.29175,-1.375 2.57363,-2.5 2.84863,-2.5 0.275,0 -0.55688,1.125 -1.84863,2.5 -1.29175,1.375 -2.57363,2.5 -2.84863,2.5 -0.275,0 0.55688,-1.125 1.84863,-2.5 z M 15.872445,54.25 C 14.628574,52.663944 14.663944,52.628574 16.25,53.872445 c 0.9625,0.754844 1.75,1.542344 1.75,1.75 0,0.823034 -0.821186,0.293303 -2.127555,-1.372445 z M 10,48.833333 C 10,48.375 10.423442,48 10.940983,48 c 0.517541,0 1.172746,0.375 1.456011,0.833333 0.283266,0.458334 -0.140176,0.833334 -0.940983,0.833334 C 10.655205,49.666667 10,49.291667 10,48.833333 Z M 75,49 C 74.098708,48.41754 73.975367,48.024514 74.690983,48.015313 75.346024,48.006891 76.160081,48.45 76.5,49 c 0.767305,1.241525 0.421123,1.241525 -1.5,0 z m 53.73333,-0.124088 c 0.67834,-0.683418 1.48524,-0.990671 1.79313,-0.682784 0.30789,0.307887 -0.24711,0.867048 -1.23333,1.242579 -1.4252,0.542685 -1.54006,0.427821 -0.5598,-0.559795 z M 5.75,39.337719 c 0.6875,-0.277412 1.8125,-0.277412 2.5,0 0.6875,0.277413 0.125,0.504386 -1.25,0.504386 -1.375,0 -1.9375,-0.226973 -1.25,-0.504386 z m 59.664593,-0.699691 c -0.287451,-0.749084 -0.358416,-4.011584 -0.1577,-7.25 L 65.621831,25.5 l 0.189085,6.666667 c 0.120361,4.243653 0.643399,6.849986 1.439084,7.171052 0.979059,0.395059 0.972257,0.521498 -0.03139,0.583334 -0.704761,0.04342 -1.516571,-0.53394 -1.804022,-1.283025 z M 12.116001,34.75 C 12.022805,32.540621 11.524909,32 9.5833333,32 8.2541667,32 6.9379167,32.46125 6.6583333,33.025 6.37875,33.58875 6.2634535,33.47625 6.4021189,32.775 6.5407843,32.07375 7.8595928,31.357363 9.3328045,31.183029 12.216957,30.84173 13.50902,32.571462 12.700575,35.691587 12.393991,36.87482 12.1919,36.549308 12.116001,34.75 Z M 137.27236,30 c 0,-2.475 0.19502,-3.4875 0.43337,-2.25 0.23836,1.2375 0.23836,3.2625 0,4.5 -0.23835,1.2375 -0.43337,0.225 -0.43337,-2.25 z m -67.510701,1.292739 c 1.243913,-0.239193 3.043913,-0.230112 4,0.02018 C 74.717747,31.563212 73.7,31.758916 71.5,31.747817 c -2.2,-0.0111 -2.982253,-0.215885 -1.738341,-0.455078 z m 0,-3 c 1.243913,-0.239193 3.043913,-0.230112 4,0.02018 C 74.717747,28.563212 73.7,28.758916 71.5,28.747817 69.3,28.736717 68.517747,28.531932 69.761659,28.292739 Z M 126.87244,11.25 C 125.62857,9.6639444 125.66394,9.6285741 127.25,10.872445 128.91575,12.178814 129.44548,13 128.62244,13 c -0.20765,0 -0.99515,-0.7875 -1.75,-1.75 z M 15,9.5 C 16.291745,8.125 17.573628,7 17.848628,7 18.123628,7 17.291745,8.125 16,9.5 14.708255,10.875 13.426372,12 13.151372,12 12.876372,12 13.708255,10.875 15,9.5 Z m 64,0 C 80.291745,8.125 81.573628,7 81.848628,7 82.123628,7 81.291745,8.125 80,9.5 78.708255,10.875 77.426372,12 77.151372,12 76.876372,12 77.708255,10.875 79,9.5 Z M 122.87244,7.25 C 121.62857,5.6639444 121.66394,5.6285741 123.25,6.8724447 124.91575,8.1788145 125.44548,9 124.62244,9 c -0.20765,0 -0.99515,-0.7875 -1.75,-1.75 z M 37.75,1.3377193 c 0.6875,-0.2774123 1.8125,-0.2774123 2.5,0 0.6875,0.2774123 0.125,0.504386 -1.25,0.504386 -1.375,0 -1.9375,-0.2269737 -1.25,-0.504386 z m 64.0625,-0.020833 c 0.72187,-0.2888706 1.58437,-0.2533443 1.91667,0.078947 0.33229,0.3322917 -0.25834,0.5686404 -1.3125,0.5252193 -1.16495,-0.047984 -1.4019,-0.2849403 -0.60417,-0.6041666 z"
       id="path3756"
       inkscape:connector-curvature="0" />
    <path
       style="fill:#5daeca"
       d="M 81.603006,58.166667 C 81.31974,57.708333 81.723388,57.333333 82.5,57.333333 c 0.776612,0 1.18026,0.375 0.896994,0.833334 C 83.113729,58.625 82.710081,59 82.5,59 82.289919,59 81.886271,58.625 81.603006,58.166667 Z m 38.834304,0.06269 c 0.34132,-0.341317 1.32379,-0.723785 2.18327,-0.84993 0.85947,-0.126144 1.28342,0.04991 0.94211,0.391222 -0.34132,0.341317 -1.32379,0.723785 -2.18327,0.84993 -0.85947,0.126144 -1.28342,-0.04991 -0.94211,-0.391222 z M 15.305752,55.785359 c -1.866114,-2.062033 -2.716741,-5.157398 -1.151436,-4.189986 0.53831,0.332694 0.722825,0.860819 0.410033,1.173611 -0.795117,0.795118 2.523502,4.294755 3.5002,3.691123 0.43849,-0.271002 1.033554,-0.11039 1.322364,0.356914 1.038991,1.681123 -2.416671,0.807578 -4.081161,-1.031662 z m 61.236953,-2.716261 c -0.316431,-0.511996 -0.192988,-1.167201 0.274316,-1.456011 0.467305,-0.28881 0.849646,0.130095 0.849646,0.930902 0,1.686167 -0.315337,1.833491 -1.123962,0.525109 z m 50.790625,-0.525109 c 0,-0.800807 0.38234,-1.219712 0.84965,-0.930902 0.4673,0.28881 0.59075,0.944015 0.27431,1.456011 -0.80862,1.308382 -1.12396,1.161058 -1.12396,-0.525109 z M 128.32814,32.5 c 0.004,-3.85 0.18518,-5.302463 0.40166,-3.227696 0.21647,2.074768 0.21284,5.224768 -0.008,7 C 128.50082,38.047537 128.3237,36.35 128.32814,32.5 Z M 2.0789474,32.416667 c 0.047984,-1.164943 0.2849403,-1.4019 0.6041666,-0.604167 0.2888706,0.721875 0.2533443,1.584375 -0.078947,1.916667 -0.3322917,0.332291 -0.5686404,-0.258334 -0.5252193,-1.3125 z"
       id="path3754"
       inkscape:connector-curvature="0" />
    <path
       style="fill:#55c9b4"
       d="m 74.756231,16.335642 c 0.690926,-0.278554 0.958898,-0.987557 0.595491,-1.575561 -0.393821,-0.637216 -0.187764,-0.776783 0.510081,-0.345491 1.376715,0.850856 0.550061,2.620536 -1.17082,2.506463 -0.852441,-0.05651 -0.833894,-0.222912 0.06525,-0.585411 z M 80,10.5 C 81.291745,9.125 82.573628,8 82.848628,8 83.123628,8 82.291745,9.125 81,10.5 79.708255,11.875 78.426372,13 78.151372,13 77.876372,13 78.708255,11.875 80,10.5 Z m 43.92431,-0.219739 c -1.33337,-1.4958565 -1.70791,-2.1747607 -0.8323,-1.508676 0.8756,0.6660847 1.8881,0.9899673 2.25,0.7197391 0.36189,-0.2702283 0.43689,-0.1952283 0.16667,0.1666666 -0.27023,0.3618953 0.01,1.2618953 0.62244,2.0000003 2.08586,2.513304 0.22729,1.352983 -2.20681,-1.37773 z M 15,11.622445 C 15,11.414789 15.7875,10.627289 16.75,9.8724447 18.336056,8.6285741 18.371426,8.6639444 17.127555,10.25 15.821186,11.915748 15,12.445479 15,11.622445 Z M 61.489919,9.9836881 C 61.144455,9.4247166 60.493886,9.1947618 60.044209,9.4726776 59.594531,9.7505934 58.613126,9.1954338 57.863307,8.2389895 56.659006,6.702823 56.68568,6.644779 58.092009,7.7413241 c 0.875605,0.6827282 1.82398,1.0093535 2.1075,0.725834 0.283519,-0.2835195 1.084715,0.1703846 1.780435,1.0086759 C 62.675664,10.314125 62.991347,11 62.681462,11 62.371576,11 61.835382,10.54266 61.489919,9.9836881 Z M 83.613087,5.8170214 c 0.28881,-0.4673048 0.944015,-0.5907472 1.456011,-0.2743163 1.308382,0.8086245 1.161058,1.1239616 -0.525109,1.1239616 -0.800807,0 -1.219712,-0.3823404 -0.930902,-0.8496453 z M 33.5,1 C 32.717818,-0.26559745 34.041628,-0.26559745 36,1 37.292687,1.8353987 37.266292,1.9714908 35.809017,1.9846872 34.878976,1.9931093 33.839919,1.55 33.5,1 Z m 8,0 C 41.839919,0.45 42.568034,0 43.118034,0 43.668034,0 43.839919,0.45 43.5,1 43.160081,1.55 42.431966,2 41.881966,2 41.331966,2 41.160081,1.55 41.5,1 Z m 56,0 c -0.782182,-1.26559745 0.541628,-1.26559745 2.5,0 1.29269,0.8353987 1.26629,0.9714908 -0.190983,0.9846872 C 98.878976,1.9931093 97.839919,1.55 97.5,1 Z m 7.5,0 c 1.95837,-1.26559745 3.28218,-1.26559745 2.5,0 -0.33992,0.55 -1.37898,0.9931093 -2.30902,0.9846872 C 103.73371,1.9714908 103.70731,1.8353987 105,1 Z"
       id="path3752"
       inkscape:connector-curvature="0" />
    <path
       style="fill:#16b698"
       d="M 11,16.418119 C 11,12.227189 26.701866,0.94350084 32.409722,1.0326459 33.559375,1.0506011 32.159927,1.873859 29.299837,2.862108 22.622645,5.169283 16.936766,9.1323495 13.624172,13.78807 12.180877,15.816564 11,17.000086 11,16.418119 Z M 62.356904,12.188026 C 59.983735,9.4322859 56.052251,6.3507949 53.153972,4.974783 47.535084,2.3071112 46.83315,1.067792 52.214642,3.3163231 c 3.969701,1.6586471 9.907715,6.6424002 12.86858,10.8005519 3.045477,4.276978 1.951349,3.502891 -2.726318,-1.928849 z m 13.462605,2.199118 C 78.488343,9.2797762 91.457306,0.93262813 96.5,1.0766647 c 1.1,0.03142 0.2,0.6263918 -2,1.3221601 -6.708769,2.1217041 -10.798281,4.6394837 -15.392278,9.4765252 -2.415752,2.543557 -3.895449,3.673865 -3.288213,2.511794 z M 124.9975,11.12396 C 122.52112,8.5054799 118.59167,5.5233422 116.26539,4.4969879 113.9391,3.4706336 112.23329,2.4333739 112.4747,2.1919664 113.97732,0.68934362 126.78604,9.969643 129.11726,14.25 c 1.386,2.544832 0.88086,2.161535 -4.11976,-3.12604 z M 43.75,1.3377193 c 0.6875,-0.2774123 1.8125,-0.2774123 2.5,0 0.6875,0.2774123 0.125,0.504386 -1.25,0.504386 -1.375,0 -1.9375,-0.2269737 -1.25,-0.504386 z m 64,0 c 0.6875,-0.2774123 1.8125,-0.2774123 2.5,0 0.6875,0.2774123 0.125,0.504386 -1.25,0.504386 -1.375,0 -1.9375,-0.2269737 -1.25,-0.504386 z M 36.761659,0.29273913 c 1.243913,-0.23919321 3.043913,-0.2301119 4,0.0201807 C 41.717747,0.56321244 40.7,0.75891598 38.5,0.7478166 36.3,0.73671721 35.517747,0.53193235 36.761659,0.29273913 Z m 64.000001,0 c 1.24391,-0.23919321 3.04391,-0.2301119 4,0.0201807 C 105.71775,0.56321244 104.7,0.75891598 102.5,0.7478166 100.3,0.73671721 99.517747,0.53193235 100.76166,0.29273913 Z"
       id="path3750"
       inkscape:connector-curvature="0" />
    <path
       style="fill:#0684ae"
       d="M 30,64.123604 C 24.411033,62.286058 19.185013,58.924376 15.205052,54.606629 12.892273,52.09756 11,49.746276 11,49.381553 c 0,-0.364723 1.752567,1.327888 3.894593,3.761359 2.142026,2.43347 6.304526,5.759325 9.25,7.39079 4.829531,2.675021 6.239165,2.965394 14.355407,2.95709 7.792451,-0.008 9.676247,-0.364938 14.040146,-2.660505 2.772081,-1.458213 6.934581,-4.706515 9.25,-7.218449 C 64.105566,51.099905 66,49.496474 66,50.048659 66,51.997218 57.385859,59.634796 52.545211,61.978114 47.28846,64.522863 34.822553,65.709167 30,64.123604 Z m 64,0 C 86.488924,61.654105 75,52.955795 75,49.738628 c 0,-0.561114 1.752567,0.970813 3.894593,3.404284 2.142026,2.43347 6.304526,5.759325 9.25,7.39079 4.829531,2.675021 6.239165,2.965394 14.355407,2.95709 7.82722,-0.008 9.66762,-0.360189 14.12335,-2.702667 2.81784,-1.481402 6.98034,-4.803114 9.25,-7.381582 C 128.14301,50.828075 130,49.196249 130,49.780263 130,51.78516 121.11526,59.725586 116.30884,62.016256 111.13494,64.482058 98.671221,65.659412 94,64.123604 Z"
       id="path3748"
       inkscape:connector-curvature="0" />
    <path
       style="fill:#2b4e8d"
       d="m 130.17471,34.75 c -0.16655,-4.528065 0.88196,-6.085364 2.42078,-3.595492 0.42846,0.693264 0.2757,0.883916 -0.38237,0.477207 -0.71098,-0.439408 -1.23074,0.823461 -1.4798,3.595492 L 130.34941,39.5 130.17471,34.75 Z M 5.8125,37.316886 c 0.721875,-0.288871 1.584375,-0.253344 1.9166667,0.07895 0.3322916,0.332292 -0.2583334,0.568641 -1.3125,0.52522 C 5.2517237,37.873069 5.0147673,37.636112 5.8125,37.316886 Z m 2,-4 c 0.721875,-0.288871 1.584375,-0.253344 1.9166667,0.07895 0.3322913,0.332292 -0.2583334,0.568641 -1.3125,0.52522 C 7.2517237,33.873069 7.0147673,33.636112 7.8125,33.316886 Z m 61.4375,-0.0062 c 0.9625,-0.251527 2.5375,-0.251527 3.5,0 0.9625,0.251528 0.175,0.457323 -1.75,0.457323 -1.925,0 -2.7125,-0.205795 -1.75,-0.457323 z"
       id="path3746"
       inkscape:connector-curvature="0" />
    <path
       style="fill:#123980"
       d="M 2.0354534,36.317942 C 0.87511465,34.842811 0.16745358,33.006006 0.46287328,32.236155 0.75829298,31.466303 1,30.433603 1,29.941266 c 0,-1.821718 4.9710806,-4.16534 7.4927148,-3.53245 3.5335882,0.886874 3.1301892,2.336221 -0.5018736,1.803148 -1.6550373,-0.242908 -3.6800373,0.115129 -4.5,0.795637 -3.52829091,2.928222 0.100552,9.891636 4.4374951,8.515144 C 10.448699,36.722813 10.674954,33.323032 8.25,32.689326 7.1733382,32.407964 7.5581029,32.187369 9.25,32.116001 11.486522,32.02166 12,32.429454 12,34.3 12,39.532459 5.585757,40.831422 2.0354534,36.317942 Z M 66,32.5 66,26 l 4.5,0 c 2.475,0 4.5,0.45 4.5,1 0,0.55 -1.575,1 -3.5,1 -2.795165,0 -3.5,0.390004 -3.5,1.936642 0,1.435529 0.840947,2.041002 3.25,2.339962 l 3.25,0.403322 -3.25,0.160037 C 68.341119,32.983203 68,33.314879 68,36 c 0,1.65 -0.45,3 -1,3 -0.564103,0 -1,-2.833333 -1,-6.5 z m 63.18025,0.25 c -0.0991,-3.7125 0.15725,-6.73245 0.56975,-6.711 0.4125,0.02145 2.325,2.15895 4.25,4.75 l 3.5,4.711 0.30479,-4.75 C 138.2611,23.638698 140,25.024934 140,32.5 c 0,3.575 -0.36637,6.5 -0.81415,6.5 -0.44778,0 -2.33141,-2.025 -4.18585,-4.5 -1.85444,-2.475 -3.71342,-4.5 -4.13106,-4.5 -0.41765,0 -0.9279,2.1375 -1.1339,4.75 -0.3109,3.942864 -0.40517,3.603017 -0.55479,-2 z"
       id="path3744"
       inkscape:connector-curvature="0" />
  </g>
</svg>
